<svg width="32" height="32" viewBox="0 0 32 32" fill="none" xmlns="http://www.w3.org/2000/svg">
<circle cx="16" cy="16" r="16" fill="#9BCF53"/>
<path fillRule="evenodd" clipRule="evenodd" d="M17.3792 4.49805C17.0008 4.95256 16.4303 5.24234 15.7923 5.24234C15.1679 5.24234 14.6098 4.96455 14.2316 4.52695C11.3643 5.25329 9.24023 7.83924 9.24023 10.9273C9.24023 14.5778 12.205 17.5376 15.8618 17.5376C19.5189 17.5376 22.4834 14.5778 22.4834 10.9273C22.4834 7.7984 20.3037 5.18387 17.3792 4.49805Z" fill="#FEFEFE"/>
<path fillRule="evenodd" clipRule="evenodd" d="M14.0779 5.08606C11.5065 5.8632 9.73484 8.22622 9.73484 10.9275C9.73484 14.2976 12.4813 17.0394 15.8575 17.0394C19.233 17.0394 21.9795 14.2976 21.9795 10.9275C21.9795 8.17372 20.1656 5.79773 17.5342 5.05415C17.0609 5.49602 16.4363 5.7416 15.7876 5.7409C15.156 5.74087 14.5468 5.50756 14.0779 5.08606ZM15.8575 18.0362C11.9308 18.0362 8.73633 14.8471 8.73633 10.9275C8.73633 7.67535 10.9437 4.84484 14.1041 4.04438C14.2866 3.99785 14.4813 4.05867 14.6051 4.20189C14.903 4.54642 15.334 4.74416 15.7876 4.74416C16.2535 4.74416 16.6919 4.53848 16.9907 4.17966C17.05 4.10851 17.128 4.05523 17.2159 4.02582C17.3039 3.99641 17.3984 3.99203 17.4887 4.01317C20.7207 4.77105 22.978 7.6142 22.978 10.9275C22.978 14.8471 19.7838 18.0362 15.8575 18.0362Z" fill="#2E2E30"/>
<path fillRule="evenodd" clipRule="evenodd" d="M20.5478 27.502H11.1767L9.44336 14.3848H22.2811L20.5478 27.502Z" fill="#F8E6C4"/>
<path opacity="0.15" fillRule="evenodd" clipRule="evenodd" d="M19.9482 14.3848L18.2148 27.502H20.5446L22.278 14.3848H19.9482Z" fill="#010202"/>
<path fillRule="evenodd" clipRule="evenodd" d="M11.608 27.003H20.1034L21.7053 14.8826H10.0065L11.6081 27.003H11.608ZM20.5415 27.9998H11.1704C10.9198 27.9998 10.7081 27.8144 10.6752 27.5666L8.94181 14.4496C8.93248 14.3793 8.93834 14.3078 8.95901 14.2399C8.97968 14.172 9.01466 14.1092 9.06163 14.0559C9.10842 14.0025 9.16613 13.9597 9.23088 13.9304C9.29562 13.901 9.36592 13.8858 9.43705 13.8857H22.2748C22.4182 13.8857 22.5554 13.9479 22.6502 14.0559C22.6972 14.1093 22.7321 14.172 22.7527 14.2399C22.7733 14.3078 22.7791 14.3793 22.7697 14.4496L21.0364 27.5666C21.0034 27.8144 20.7921 27.9998 20.5415 27.9998Z" fill="#2E2E30"/>
<path fillRule="evenodd" clipRule="evenodd" d="M10.6701 11.9238C10.6701 11.9238 10.6263 9.35618 11.8131 9.02391C12.9999 8.6916 16.9939 12.0827 20.9045 11.9238" fill="#FEFEFE"/>
<path fillRule="evenodd" clipRule="evenodd" d="M20.6405 12.4281C18.2561 12.4281 15.9017 11.2525 14.1644 10.3853C13.306 9.95674 12.2339 9.42378 11.9517 9.5042C11.3976 9.65935 11.1592 11.0352 11.1729 11.9161C11.1769 12.1915 10.9569 12.4181 10.6816 12.4224C10.4134 12.4261 10.1791 12.2078 10.1744 11.9326C10.1691 11.6307 10.1678 8.96827 11.6818 8.54431C12.3408 8.3602 13.2434 8.81077 14.611 9.49358C16.3211 10.3475 18.6662 11.514 20.8877 11.4263C21.157 11.416 21.396 11.629 21.407 11.9041C21.4179 12.1789 21.2036 12.4111 20.928 12.4221C20.8322 12.4261 20.7363 12.4281 20.6405 12.4281Z" fill="#2E2E30"/>
<path fillRule="evenodd" clipRule="evenodd" d="M14.3613 9.92748C14.3613 9.92748 17.8274 9.10747 18.8258 8.69215C19.8243 8.27684 21.3221 8.42833 20.906 11.9243C20.906 11.9243 16.9896 11.5164 14.3613 9.92748Z" fill="#FEFEFE"/>
<path fillRule="evenodd" clipRule="evenodd" d="M12.334 9.00109C12.334 9.00109 15.7871 8.52894 15.7871 6.44902C15.7871 6.44902 18.5744 6.30815 19.3233 8.55089L14.3595 9.92714L12.334 9.00109Z" fill="#FEFEFE"/>
<path opacity="0.15" fillRule="evenodd" clipRule="evenodd" d="M15.7891 6.44967C15.7891 6.44967 18.9216 9.56892 18.9772 11.9246H20.9062C20.9062 11.9246 21.6588 8.54026 19.5872 8.52964C19.5872 8.52964 18.481 6.20511 15.7891 6.44967Z" fill="#010202"/>
<path fillRule="evenodd" clipRule="evenodd" d="M15.7808 10.0931C17.5501 10.8633 19.5501 11.2265 20.4613 11.3624C20.5562 9.99843 20.2843 9.45621 20.0999 9.24888C19.9654 9.098 19.7997 9.02759 19.5777 9.02759C19.409 9.02759 19.2163 9.07078 19.0205 9.15215C18.3942 9.41301 16.8884 9.81371 15.7808 10.0931ZM20.9093 12.4229C20.8917 12.4229 20.8747 12.4223 20.8571 12.4203C20.6926 12.4034 16.7986 11.982 14.1057 10.354C14.0209 10.3027 13.9533 10.2273 13.9116 10.1376C13.8698 10.0479 13.8559 9.94788 13.8714 9.85023C13.8866 9.75258 13.9307 9.66166 13.9979 9.58905C14.0652 9.51645 14.1527 9.46546 14.2491 9.44258C14.2834 9.43459 17.6869 8.62722 18.6364 8.23216C19.4888 7.87795 20.3312 8.00819 20.8464 8.58703C21.4175 9.22895 21.6 10.34 21.4042 11.9834C21.3746 12.2365 21.1589 12.4229 20.9094 12.4229" fill="#2E2E30"/>
<path fillRule="evenodd" clipRule="evenodd" d="M13.8253 9.13455L14.4027 9.39871L18.6276 8.22749C18.0305 7.2543 16.8556 7.01778 16.2309 6.96232C15.9637 8.13255 14.8011 8.78574 13.8253 9.1346M14.3608 10.4261C14.2899 10.4261 14.219 10.4108 14.1531 10.3806L12.1272 9.45459C12.0289 9.40964 11.9479 9.33414 11.8964 9.23942C11.8448 9.1447 11.8255 9.03588 11.8413 8.92929C11.8569 8.82268 11.9068 8.72399 11.9835 8.64803C12.0602 8.57206 12.1595 8.52292 12.2666 8.50796C12.2969 8.50363 15.2887 8.04348 15.2887 6.44928C15.2887 6.1848 15.498 5.96619 15.763 5.95157C15.763 5.95157 15.8066 5.94922 15.8854 5.94922C16.4023 5.94922 19.021 6.0672 19.7978 8.39402C19.8411 8.52328 19.8294 8.66476 19.7652 8.78542C19.7334 8.84504 19.6898 8.8976 19.637 8.93992C19.5842 8.98224 19.5233 9.01344 19.458 9.03162L14.4946 10.4079C14.4507 10.4201 14.4057 10.4261 14.3608 10.4261Z" fill="#2E2E30"/>
<path fillRule="evenodd" clipRule="evenodd" d="M8.49609 14.413H23.215V11.9248H8.49609V14.413Z" fill="#F8E6C4"/>
<path opacity="0.15" fillRule="evenodd" clipRule="evenodd" d="M20.8887 14.4127H23.2185V11.9248H20.8887V14.4127Z" fill="#010202"/>
<path fillRule="evenodd" clipRule="evenodd" d="M8.99846 13.9137H22.7193V12.4226H8.99846V13.9137ZM23.2185 14.9105H8.49925C8.22366 14.9105 8 14.6876 8 14.4122V11.9242C8 11.6491 8.22366 11.4258 8.49925 11.4258H23.2185C23.4941 11.4258 23.7177 11.649 23.7177 11.9242V14.4122C23.7177 14.6876 23.4941 14.9105 23.2185 14.9105Z" fill="#2E2E30"/>
<path fillRule="evenodd" clipRule="evenodd" d="M18.5128 20.0576C18.5128 21.4491 17.3829 22.5771 15.989 22.5771C14.5951 22.5771 13.4648 21.4491 13.4648 20.0576C13.4648 18.6661 14.5952 17.5381 15.989 17.5381C17.3829 17.5381 18.5128 18.6661 18.5128 20.0576Z" fill="#86C52E"/>
<path opacity="0.15" fillRule="evenodd" clipRule="evenodd" d="M16.9783 17.7393C17.1119 18.0519 17.1807 18.3882 17.1803 18.7281C17.1803 20.1196 16.0504 21.2476 14.6565 21.2476C14.316 21.2479 13.9791 21.1793 13.666 21.0459C14.0511 21.9457 14.9457 22.5766 15.9878 22.5766C17.3817 22.5766 18.5117 21.4486 18.5117 20.0571C18.5117 19.0165 17.8799 18.1237 16.9783 17.7393" fill="#010202"/>
<path fillRule="evenodd" clipRule="evenodd" d="M15.9843 18.0368C14.868 18.0368 13.9594 18.9436 13.9594 20.0579C13.9594 21.1727 14.868 22.0794 15.9843 22.0794C17.1006 22.0794 18.0089 21.1727 18.0089 20.0579C18.0089 18.9436 17.1006 18.0368 15.9843 18.0368ZM15.9843 23.0762C14.3172 23.0762 12.9609 21.7223 12.9609 20.0579C12.9609 18.394 14.3172 17.04 15.9843 17.04C17.6515 17.04 19.0074 18.394 19.0074 20.0579C19.0074 21.7223 17.6515 23.0762 15.9843 23.0762Z" fill="#2E2E30"/>
</svg>
