  <svg
    width="48"
    height="48"
    viewBox="0 0 48 48"
    fill="none"
    xmlns="http://www.w3.org/2000/svg"
  >
    <path
      d="M0 0H33.8824C37.6266 0 41.2175 1.48739 43.865 4.13496C46.5126 6.78254 48 10.3734 48 14.1176V33.8824C48 37.6266 46.5126 41.2175 43.865 43.865C41.2175 46.5126 37.6266 48 33.8824 48H0V0Z"
      fill="#00A3FF"
    />
    <path
      d="M29.2094 14H15.7906C14.2494 14 13 15.1836 13 16.6437V29.3563C13 30.8164 14.2494 32 15.7906 32H29.2094C30.7506 32 32 30.8164 32 29.3563V16.6437C32 15.1836 30.7506 14 29.2094 14Z"
      fill="white"
    />
    <path
      d="M22.0214 35.7377L18.0589 28.7437C18.0168 28.6659 17.9967 28.5796 18.0005 28.4927C18.0042 28.4058 18.0318 28.3213 18.0806 28.2469C18.1294 28.1726 18.1978 28.111 18.2794 28.0678C18.361 28.0246 18.4531 28.0013 18.5471 28H26.4529C26.5469 28.0013 26.639 28.0246 26.7206 28.0678C26.8022 28.111 26.8706 28.1726 26.9194 28.2469C26.9682 28.3213 26.9958 28.4058 26.9995 28.4927C27.0033 28.5796 26.9832 28.6659 26.9411 28.7437L22.9786 35.7377C22.9316 35.8171 22.8623 35.8833 22.7781 35.9295C22.6939 35.9756 22.5979 36 22.5 36C22.4021 36 22.3061 35.9756 22.2219 35.9295C22.1377 35.8833 22.0684 35.8171 22.0214 35.7377Z"
      fill="white"
    />
    <path
      fillRule="evenodd"
      clipRule="evenodd"
      d="M26.3718 23.2493C27.0333 23.6902 27.1988 24.5647 26.7414 25.2025C25.9213 26.3461 25.0015 27.1078 24.0218 27.5461C23.0382 27.9861 22.0846 28.0597 21.2681 27.9618C20.4651 27.8655 19.8002 27.6051 19.3449 27.3785C19.1143 27.2638 18.9284 27.1531 18.7949 27.0673C18.7279 27.0243 18.6734 26.987 18.6324 26.958C18.6118 26.9434 18.5946 26.9309 18.5807 26.9207L18.5625 26.9071L18.5554 26.9017L18.5523 26.8994L18.5508 26.8983C18.5508 26.8983 18.5495 26.8972 19.4462 25.811L18.5495 26.8972C17.9202 26.4144 17.816 25.5311 18.3169 24.9244C18.8147 24.3213 19.723 24.2185 20.352 24.6917L20.3554 24.6941C20.3637 24.7 20.3825 24.713 20.4107 24.7311C20.4677 24.7678 20.5601 24.8233 20.6809 24.8834C20.9285 25.0067 21.2594 25.1312 21.6275 25.1753C21.9821 25.2178 22.3749 25.1873 22.7958 24.999C23.2205 24.809 23.763 24.4183 24.3457 23.6057C24.8031 22.9679 25.7102 22.8083 26.3718 23.2493Z"
      fill="#00A3FF"
    />
  </svg>