<svg width="32" height="32" viewBox="0 0 32 32" fill="none" xmlns="http://www.w3.org/2000/svg">
<circle cx="16" cy="16" r="16" fill="#FE6847"/>
<ellipse cx="12.3124" cy="16.0203" rx="5.72846" ry="5.82299" fill="#B66D0D"/>
<ellipse cx="12.3182" cy="16.0219" rx="3.29082" ry="3.34512" fill="#FA824C"/>
<ellipse cx="12.4376" cy="16.1442" rx="1.21882" ry="1.23893" fill="#FBB13C"/>
<ellipse cx="20.6053" cy="15.5263" rx="3.29082" ry="2.84955" fill="#FBB13C"/>
<path d="M25.966 16.8857H5.85547C6.09923 20.107 7.31805 20.6025 7.80558 21.5937C8.19561 22.3866 10.487 24.2368 11.5839 25.0627V26.7972C13.5747 26.8385 17.873 26.8963 19.1406 26.7972C20.4082 26.6981 20.5626 25.3518 20.4813 24.691C23.7965 23.6008 25.5191 19.0332 25.966 16.8857Z" fill="#F1F1F1"/>
<ellipse cx="20.6008" cy="15.8964" rx="1.09694" ry="0.991148" fill="#FA824C"/>
<path d="M23.7635 5.07507C23.6413 5.00208 23.4956 4.98128 23.3583 5.01722C23.221 5.05317 23.1033 5.14292 23.031 5.26685L19.2 11.8639C19.1804 11.8981 19.1645 11.9345 19.1527 11.9722C18.7241 12.1338 18.324 12.3648 17.968 12.6564C16.8072 10.6518 14.6804 9.38953 12.3568 9.38953C8.77152 9.38953 5.85512 12.3498 5.84513 15.9918H5L5.07557 16.6036C5.51532 20.1593 7.67263 23.2651 10.7745 24.9005V27H18.7783C19.7928 27 20.6182 26.1602 20.6182 25.1287V24.9007C23.7211 23.2646 25.8774 20.1588 26.3182 16.6036L26.3937 15.9913H24.8675C24.8604 14.1324 23.6877 12.552 22.0564 11.9554L26.8362 7.27988C27.0487 7.07198 27.0555 6.72756 26.8503 6.51149C26.8017 6.46005 26.7435 6.41885 26.6792 6.39025C26.6149 6.36164 26.5457 6.3462 26.4755 6.3448C26.4054 6.34339 26.3356 6.35606 26.2702 6.38207C26.2049 6.40807 26.1452 6.44692 26.0946 6.49637L20.7703 11.7054C20.7225 11.7034 20.675 11.6979 20.6265 11.6979C20.5958 11.6979 20.5663 11.7024 20.5361 11.7029L23.9522 5.81967C23.9879 5.75818 24.0113 5.69015 24.0212 5.61946C24.031 5.54876 24.0271 5.47679 24.0096 5.40764C23.9921 5.3385 23.9613 5.27354 23.9191 5.21647C23.8769 5.15941 23.824 5.11136 23.7635 5.07507ZM12.3566 10.4771C14.4034 10.4771 16.2692 11.6484 17.1972 13.4835C16.8589 13.9565 16.619 14.4946 16.4923 15.0651C16.0669 13.1403 14.3757 11.6974 12.3566 11.6974C10.0245 11.6974 8.12725 13.6222 8.11726 15.9916H6.91501C6.92476 12.9495 9.36143 10.4771 12.3566 10.4771ZM12.3566 14.0083C11.2767 14.0083 10.3979 14.8966 10.3879 15.9916H9.18738C9.19738 14.2219 10.6144 12.7852 12.3566 12.7852C14.0992 12.7852 15.5177 14.2219 15.5267 15.9916H14.3247C14.3152 14.8966 13.4364 14.0083 12.3566 14.0083ZM13.2541 15.9918H11.459C11.4638 15.7528 11.5605 15.5252 11.7283 15.3577C11.8962 15.1902 12.1219 15.0962 12.357 15.0958C12.5921 15.0963 12.8177 15.1903 12.9854 15.3578C13.153 15.5253 13.2495 15.7529 13.2541 15.9918ZM25.161 17.0794C24.5665 20.2396 22.4581 22.9338 19.5361 24.2243H17.8237V25.3121H19.5247C19.4846 25.4827 19.3893 25.6348 19.2539 25.7437C19.1186 25.8526 18.9511 25.912 18.7785 25.9125H11.8447V25.3121H13.8506V24.2243H11.8576C8.93557 22.9346 6.82701 20.2396 6.23198 17.0794H25.161ZM19.7292 15.9918C19.7339 15.7529 19.8305 15.5253 19.9982 15.3579C20.1659 15.1904 20.3914 15.0964 20.6265 15.0958C20.8618 15.096 21.0877 15.19 21.2556 15.3575C21.4236 15.525 21.5203 15.7527 21.525 15.9918H19.7292ZM20.6265 12.7855C22.3699 12.7855 23.7889 14.2221 23.7981 15.9918H22.5954C22.5856 14.8968 21.7066 14.0085 20.6265 14.0085C19.5466 14.0085 18.6686 14.8968 18.6588 15.9918H17.4573C17.4671 14.2221 18.8841 12.7855 20.6265 12.7855Z" fill="black"/>
<path d="M20.3964 22.3377C20.482 22.3377 20.5685 22.3171 20.6482 22.2733C21.3016 21.9178 21.8749 21.4279 22.3317 20.8347C22.7886 20.2416 23.1189 19.5583 23.3016 18.8283C23.3191 18.759 23.323 18.6868 23.313 18.616C23.303 18.5452 23.2794 18.477 23.2434 18.4155C23.2075 18.354 23.16 18.3003 23.1036 18.2574C23.0472 18.2146 22.983 18.1836 22.9147 18.166C22.8465 18.1485 22.7755 18.1448 22.7059 18.1552C22.6362 18.1656 22.5693 18.1899 22.5089 18.2266C22.4485 18.2634 22.3958 18.3119 22.3539 18.3694C22.312 18.4269 22.2816 18.4922 22.2646 18.5617C22.1187 19.1451 21.8549 19.6912 21.4899 20.1653C21.1249 20.6394 20.6667 21.0309 20.1446 21.3151C20.0393 21.372 19.9558 21.4632 19.9074 21.5739C19.8589 21.6847 19.8484 21.8088 19.8773 21.9264C19.9063 22.044 19.9731 22.1484 20.0672 22.2229C20.1613 22.2975 20.2772 22.3379 20.3964 22.3377Z" fill="black"/>
<path d="M19.103 23.1967C19.4533 23.1967 19.7373 22.908 19.7373 22.552C19.7373 22.1959 19.4533 21.9072 19.103 21.9072C18.7527 21.9072 18.4688 22.1959 18.4688 22.552C18.4688 22.908 18.7527 23.1967 19.103 23.1967Z" fill="black"/>
</svg>
