<svg width="235" height="241" viewBox="0 0 235 241" fill="none" xmlns="http://www.w3.org/2000/svg">
<circle cx="117.5" cy="79.5" r="79" fill="white"/>
<ellipse cx="99.3116" cy="79.6006" rx="28.2843" ry="28.751" fill="#E1E1E1"/>
<ellipse cx="99.3207" cy="79.5927" rx="16.2484" ry="16.5165" fill="#E1E1E1"/>
<ellipse cx="99.9105" cy="80.2071" rx="6.01793" ry="6.11724" fill="#E1E1E1"/>
<ellipse cx="140.239" cy="77.1458" rx="16.2484" ry="14.0697" fill="#E1E1E1"/>
<path d="M166.708 83.8789H67.4121C68.6157 99.7837 74.6336 102.231 77.0408 107.124C78.9665 111.039 90.2802 120.175 95.6964 124.253V132.817C105.526 133.021 126.749 133.306 133.008 132.817C139.266 132.327 140.028 125.68 139.627 122.418C155.996 117.034 164.501 94.4821 166.708 83.8789Z" fill="#F1F1F1"/>
<ellipse cx="140.227" cy="78.9836" rx="5.41614" ry="4.89379" fill="#E1E1E1"/>
<path d="M155.832 25.5581C155.229 25.1978 154.509 25.0951 153.832 25.2725C153.154 25.45 152.573 25.8932 152.216 26.5051L133.3 59.0782C133.203 59.2471 133.125 59.4264 133.066 59.6128C130.95 60.4104 128.975 61.5512 127.217 62.9908C121.486 53.0931 110.984 46.8608 99.5117 46.8608C81.8094 46.8608 67.4097 61.4774 67.3603 79.4596H63.1875L63.5606 82.4803C65.7319 100.037 76.3836 115.371 91.6992 123.446V133.812H131.218C136.227 133.812 140.302 129.666 140.302 124.573V123.447C155.623 115.369 166.27 100.034 168.446 82.4803L168.819 79.4571H161.283C161.248 70.2788 155.458 62.4757 147.404 59.5296L171.004 36.4444C172.053 35.4179 172.087 33.7173 171.073 32.6505C170.833 32.3965 170.546 32.1931 170.229 32.0518C169.911 31.9106 169.569 31.8344 169.223 31.8274C168.876 31.8205 168.532 31.883 168.209 32.0114C167.887 32.1399 167.592 32.3316 167.342 32.5758L141.053 58.2952C140.818 58.2854 140.583 58.2585 140.343 58.2585C140.192 58.2585 140.046 58.2805 139.897 58.2829L156.764 29.2346C156.94 28.931 157.056 28.5951 157.105 28.2461C157.153 27.897 157.134 27.5416 157.047 27.2002C156.961 26.8588 156.809 26.5381 156.6 26.2563C156.392 25.9746 156.131 25.7373 155.832 25.5581ZM99.5105 52.2305C109.617 52.2305 118.829 58.0138 123.411 67.0746C121.741 69.4101 120.556 72.0673 119.931 74.8839C117.83 65.3801 109.48 58.256 99.5105 58.256C87.9958 58.256 78.6283 67.7598 78.579 79.4584H72.6429C72.691 64.4381 84.7221 52.2305 99.5105 52.2305ZM99.5105 69.6659C94.1786 69.6659 89.8397 74.0519 89.7904 79.4584H83.8627C83.912 70.7205 90.9085 63.6269 99.5105 63.6269C108.115 63.6269 115.119 70.7205 115.163 79.4584H109.228C109.181 74.0519 104.842 69.6659 99.5105 69.6659ZM103.942 79.4596H95.0789C95.1025 78.2794 95.5798 77.1555 96.4086 76.3286C97.2373 75.5017 98.3516 75.0376 99.5129 75.0356C100.674 75.0379 101.787 75.5023 102.615 76.3293C103.443 77.1562 103.919 78.2799 103.942 79.4596ZM162.732 84.8293C159.797 100.433 149.387 113.736 134.96 120.107H126.505V125.478H134.903C134.705 126.321 134.235 127.072 133.566 127.609C132.898 128.147 132.071 128.441 131.219 128.443H96.983V125.478H106.887V120.107H97.0468C82.6194 113.739 72.2084 100.433 69.2704 84.8293H162.732ZM135.913 79.4596C135.936 78.2799 136.413 77.1564 137.241 76.3296C138.069 75.5027 139.183 75.0382 140.343 75.0356C141.505 75.0366 142.62 75.5004 143.45 76.3274C144.279 77.1544 144.756 78.2789 144.78 79.4596H135.913ZM140.343 63.6282C148.951 63.6282 155.957 70.7217 156.003 79.4596H150.065C150.017 74.0532 145.676 69.6671 140.343 69.6671C135.011 69.6671 130.676 74.0532 130.628 79.4596H124.696C124.744 70.7217 131.74 63.6282 140.343 63.6282Z" fill="#A1A1A1"/>
<path d="M139.216 110.797C139.639 110.797 140.066 110.695 140.46 110.479C143.685 108.723 146.516 106.304 148.772 103.376C151.027 100.447 152.658 97.0735 153.561 93.4691C153.647 93.1268 153.666 92.7706 153.617 92.4209C153.568 92.0712 153.451 91.7347 153.273 91.4309C153.096 91.1271 152.861 90.8619 152.583 90.6506C152.304 90.4392 151.987 90.2858 151.65 90.1991C151.313 90.1125 150.963 90.0943 150.619 90.1457C150.275 90.197 149.945 90.3169 149.646 90.4984C149.348 90.6799 149.088 90.9194 148.881 91.2033C148.674 91.4872 148.525 91.8098 148.441 92.1526C147.72 95.0334 146.417 97.73 144.615 100.071C142.813 102.411 140.551 104.345 137.973 105.748C137.453 106.029 137.041 106.479 136.802 107.026C136.562 107.573 136.51 108.185 136.653 108.766C136.796 109.347 137.126 109.862 137.591 110.23C138.055 110.598 138.627 110.798 139.216 110.797Z" fill="#A1A1A1"/>
<path d="M132.821 115.039C134.551 115.039 135.953 113.613 135.953 111.855C135.953 110.097 134.551 108.672 132.821 108.672C131.092 108.672 129.689 110.097 129.689 111.855C129.689 113.613 131.092 115.039 132.821 115.039Z" fill="#A1A1A1"/>
<path d="M33.9922 192.141C33.9922 194.5 35.7109 196.891 37.7578 197.781L37.0703 198.75C35.4453 198.008 34.0391 196.406 33.3984 194.484C32.7422 196.523 31.3438 198.297 29.7578 199.094L29.0234 198.125C31.0078 197.172 32.7422 194.547 32.7578 192.141V190.328H29.4766V189.312H37.3047V190.328H33.9922V192.141ZM40.4766 187.875V201.766H39.2422V187.875H40.4766ZM53.8984 188.625V189.656C53.8984 190.734 53.8984 192 53.5391 193.734H55.5703V194.75H42.8516V193.734H52.3047C52.6797 191.992 52.6797 190.734 52.6797 189.656V189.641H44.4609V188.625H53.8984ZM53.9609 196.672V201.578H44.4141V196.672H53.9609ZM45.6328 197.641V200.578H52.7422V197.641H45.6328ZM72.5859 187.875V201.766H71.4141V187.875H72.5859ZM69.6641 188.25V201.062H68.4922V194.578H65.5547C64.7031 196.195 63.3672 197.625 61.4297 198.766L60.7109 197.875C63.7344 196.086 65.25 193.578 65.4766 190.672H61.3047V189.656H66.6953C66.6875 191.023 66.4688 192.344 66.0078 193.578H68.4922V188.25H69.6641ZM79.4609 191.609C79.4453 194.141 81.1797 196.703 83.2266 197.625L82.4766 198.594C80.8984 197.82 79.5312 196.188 78.8672 194.203C78.2188 196.305 76.8516 198.055 75.2266 198.875L74.4453 197.844C76.5078 196.891 78.2266 194.25 78.2422 191.609V189.078H79.4609V191.609ZM85.9766 187.875V201.797H84.7422V187.875H85.9766ZM99.3984 188.484V189.375C99.3984 190.32 99.3984 191.508 99.0859 193.078H101.07V194.062H88.3516V193.078H97.8516C98.1641 191.531 98.1797 190.391 98.1797 189.484H89.9609V188.484H99.3984ZM99.4453 195.469V198.969H91.1172V200.609H99.8047V201.609H89.8828V198H98.2266V196.453H89.8672V195.469H99.4453ZM108.508 188.125C111.602 188.125 113.414 188.969 113.414 190.516C113.414 192.094 111.602 192.938 108.508 192.953C105.414 192.938 103.586 192.094 103.586 190.516C103.586 188.969 105.414 188.125 108.508 188.125ZM108.508 189.047C106.195 189.047 104.852 189.609 104.867 190.516C104.852 191.484 106.195 192.016 108.508 192.016C110.805 192.016 112.164 191.484 112.164 190.516C112.164 189.609 110.805 189.047 108.508 189.047ZM114.836 193.891V194.891H102.18V193.891H114.836ZM113.211 196.094V199.203H104.961V200.641H113.633V201.609H103.742V198.297H112.008V197.031H103.711V196.094H113.211ZM124.727 190.453C124.727 192.297 126.086 193.984 128.148 194.703L127.523 195.656C125.938 195.094 124.727 193.953 124.133 192.516C123.539 194.094 122.266 195.32 120.633 195.922L119.977 194.969C122.055 194.234 123.508 192.438 123.523 190.453V189.859H120.352V188.859H127.852V189.859H124.727V190.453ZM130.883 187.875V191.547H132.977V192.594H130.883V196.25H129.664V187.875H130.883ZM130.883 196.984V201.766H129.664V197.984H121.789V196.984H130.883ZM138.633 190.062C138.617 192.047 140.023 193.797 142.07 194.484L141.383 195.438C139.852 194.859 138.648 193.734 138.055 192.266C137.453 193.93 136.18 195.227 134.508 195.859L133.836 194.859C135.977 194.109 137.398 192.266 137.414 190.109V188.672H138.633V190.062ZM145.367 187.875V196.109H144.133V191.875H141.039V190.859H144.133V187.875H145.367ZM140.758 196.516C143.648 196.516 145.414 197.469 145.414 199.141C145.414 200.797 143.648 201.734 140.758 201.734C137.867 201.734 136.102 200.797 136.102 199.141C136.102 197.469 137.867 196.516 140.758 196.516ZM140.758 197.484C138.633 197.484 137.305 198.109 137.32 199.141C137.305 200.141 138.633 200.75 140.758 200.75C142.883 200.75 144.195 200.141 144.195 199.141C144.195 198.109 142.883 197.484 140.758 197.484ZM154.617 190.281V191.281H147.648V190.281H150.539V188.297H151.758V190.281H154.617ZM151.133 192.219C152.883 192.219 154.133 193.531 154.148 195.375C154.133 197.234 152.883 198.562 151.133 198.562C149.398 198.562 148.148 197.234 148.148 195.375C148.148 193.531 149.398 192.219 151.133 192.219ZM151.133 193.25C150.039 193.266 149.242 194.156 149.242 195.375C149.242 196.609 150.039 197.5 151.133 197.484C152.242 197.5 153.055 196.609 153.055 195.375C153.055 194.156 152.242 193.266 151.133 193.25ZM159.508 187.875V201.766H158.336V194.75H156.492V201.078H155.336V188.219H156.492V193.734H158.336V187.875H159.508ZM174.227 198.969V199.984H161.508V198.969H167.227V195.969H163.008V188.859H164.242V191.375H171.461V188.859H172.664V195.969H168.43V198.969H174.227ZM164.242 194.969H171.461V192.375H164.242V194.969ZM179.461 191.828C179.461 194.031 180.539 196.422 182.383 197.516L181.68 198.469C180.344 197.656 179.383 196.172 178.898 194.484C178.383 196.328 177.352 197.914 175.961 198.766L175.18 197.844C177.102 196.719 178.273 194.25 178.273 191.875V189.188H179.461V191.828ZM187.242 187.875V201.766H186.055V187.875H187.242ZM184.367 188.172V201.062H183.211V193.906H180.852V192.859H183.211V188.172H184.367ZM201.883 198.953V199.984H189.164V198.953H192.32V195.203C191.133 194.586 190.414 193.586 190.414 192.328C190.414 190.172 192.523 188.766 195.492 188.75C198.461 188.766 200.57 190.172 200.57 192.328C200.57 193.562 199.875 194.555 198.727 195.172V198.953H201.883ZM195.492 189.766C193.211 189.75 191.602 190.781 191.602 192.328C191.602 193.875 193.211 194.922 195.492 194.922C197.758 194.922 199.383 193.875 199.383 192.328C199.383 190.781 197.758 189.75 195.492 189.766ZM193.523 198.953H197.492V195.641C196.891 195.805 196.219 195.891 195.492 195.891C194.781 195.891 194.117 195.812 193.523 195.656V198.953ZM205.242 189.188L205.133 197.312H203.82L203.711 189.188H205.242ZM204.477 200.594C203.93 200.594 203.461 200.141 203.477 199.578C203.461 199.031 203.93 198.578 204.477 198.578C205.023 198.578 205.477 199.031 205.477 199.578C205.477 200.141 205.023 200.594 204.477 200.594Z" fill="#757575"/>
<path d="M16.9336 224.922V226.875H0.683594V224.922H7.59766V223.398H2.65625V217.305H14.9805V219.238H5.13672V221.445H15.0781V223.398H10.0391V224.922H16.9336ZM8.76953 227.773C12.6172 227.773 14.9414 228.945 14.9609 231.055C14.9414 233.125 12.6172 234.316 8.76953 234.316C4.88281 234.316 2.53906 233.125 2.53906 231.055C2.53906 228.945 4.88281 227.773 8.76953 227.773ZM8.76953 229.668C6.30859 229.668 5.05859 230.137 5.07812 231.055C5.05859 231.992 6.30859 232.422 8.76953 232.422C11.1719 232.422 12.4414 231.992 12.4609 231.055C12.4414 230.137 11.1719 229.668 8.76953 229.668ZM21.1523 218.223V227.91C22.7832 227.881 24.2871 227.764 25.957 227.402L26.2891 229.492C24.1016 229.961 22.1875 230.039 19.9023 230.039H18.6523V218.223H21.1523ZM33.3789 216.523V234.297H31.0352V216.523H33.3789ZM29.5703 216.855V233.516H27.207V224.16H23.6523V222.148H27.207V216.855H29.5703ZM51.5234 230.176V232.168H35.2539V230.176H42.0508V226.152H44.5312V230.176H51.5234ZM44.6094 218.809C44.6094 221.348 46.8945 224.023 50.957 224.648L49.9023 226.719C46.7773 226.152 44.4531 224.482 43.2812 222.266C42.1094 224.473 39.8047 226.162 36.6992 226.719L35.6445 224.648C39.668 224.023 41.9336 221.328 41.9531 218.809V217.539H44.6094V218.809ZM59.3555 219.043C59.3359 221.27 60.6055 223.418 63.5352 224.297L62.2852 226.25C60.2637 225.605 58.8672 224.346 58.0664 222.715C57.2656 224.473 55.8203 225.85 53.7305 226.523L52.4805 224.57C55.4492 223.613 56.7578 221.309 56.7578 219.043V217.344H59.3555V219.043ZM67.4219 227.891V234.297H64.9219V229.883H55.1953V227.891H67.4219ZM67.4219 216.523V227.129H64.9219V216.523H67.4219ZM85.2344 216.523V234.297H82.8516V216.523H85.2344ZM81.5234 216.777V233.477H79.1797V225.078H77.7539C77.5195 228.574 76.0352 230.684 73.8477 230.684C71.5039 230.684 69.9805 228.223 69.9805 224.219C69.9805 220.234 71.5039 217.793 73.8477 217.793C75.9863 217.793 77.4512 219.785 77.7344 223.105H79.1797V216.777H81.5234ZM73.8477 220.137C72.8516 220.137 72.2656 221.504 72.2852 224.219C72.2656 226.953 72.8516 228.301 73.8477 228.281C74.8633 228.301 75.4688 226.953 75.4688 224.219C75.4688 221.504 74.8633 220.137 73.8477 220.137ZM107.051 216.523V234.297H104.648V225.41H102.988V233.438H100.645V216.816H102.988V223.398H104.648V216.523H107.051ZM94.9414 218.496V227.773C96.3672 227.744 97.9297 227.617 99.6484 227.285L99.9023 229.434C97.5195 229.844 95.4883 229.961 93.6523 229.961H92.4414V218.496H94.9414ZM127.949 217.246V218.457C127.949 219.6 127.949 221.025 127.617 222.812H129.883V224.766H113.613V222.812H125.098C125.391 221.367 125.449 220.205 125.469 219.219H115.605V217.246H127.949ZM127.871 226.016V230.996H117.949V232.246H128.359V234.16H115.469V229.121H125.41V227.949H115.449V226.016H127.871ZM145.781 216.523V234.336H143.262V216.523H145.781ZM136.133 217.773C138.809 217.773 140.801 220.234 140.801 224.102C140.801 228.008 138.809 230.449 136.133 230.449C133.398 230.449 131.406 228.008 131.426 224.102C131.406 220.234 133.398 217.773 136.133 217.773ZM136.133 220.02C134.746 220.02 133.828 221.465 133.828 224.102C133.828 226.758 134.746 228.184 136.133 228.184C137.48 228.184 138.398 226.758 138.398 224.102C138.398 221.465 137.48 220.02 136.133 220.02ZM169.062 230.176V232.168H152.793V230.176H159.59V226.152H162.07V230.176H169.062ZM162.148 218.809C162.148 221.348 164.434 224.023 168.496 224.648L167.441 226.719C164.316 226.152 161.992 224.482 160.82 222.266C159.648 224.473 157.344 226.162 154.238 226.719L153.184 224.648C157.207 224.023 159.473 221.328 159.492 218.809V217.539H162.148V218.809ZM185.41 216.523V234.297H183.008V225.254H181.387V233.516H179.062V216.992H181.387V223.262H183.008V216.523H185.41ZM177.812 218.711C177.793 223.672 176.309 227.734 171.309 230.645L169.863 228.926C173.486 226.797 175.039 224.189 175.391 220.703H170.762V218.711H177.812ZM187.129 228.77C188.135 228.77 189.365 228.76 190.664 228.73V225.742H187.91V218.125H195.566V220.137H190.352V223.75H195.723V225.742H193.047V228.633C194.131 228.594 195.195 228.516 196.133 228.398L196.27 230.176C193.398 230.723 189.746 230.801 187.461 230.801L187.129 228.77ZM202.949 216.523V234.297H200.566V225.605H199.18V233.477H196.855V216.816H199.18V223.594H200.566V216.523H202.949ZM220.918 230.176V232.227H204.648V230.176H208.281V225.82C206.904 225 206.074 223.74 206.074 222.168C206.074 219.297 208.887 217.383 212.754 217.383C216.602 217.383 219.434 219.297 219.453 222.168C219.443 223.701 218.633 224.951 217.305 225.781V230.176H220.918ZM212.754 219.355C210.215 219.355 208.535 220.371 208.535 222.168C208.535 223.906 210.215 224.98 212.754 224.98C215.273 224.98 216.973 223.906 216.992 222.168C216.973 220.371 215.273 219.355 212.754 219.355ZM210.742 230.176H214.785V226.719C214.15 226.846 213.467 226.914 212.754 226.914C212.041 226.914 211.367 226.855 210.742 226.719V230.176ZM224.238 230.781C223.32 230.781 222.578 230.039 222.598 229.141C222.578 228.242 223.32 227.52 224.238 227.52C225.098 227.52 225.859 228.242 225.859 229.141C225.859 230.039 225.098 230.781 224.238 230.781ZM224.238 223.34C223.32 223.34 222.578 222.598 222.598 221.699C222.578 220.801 223.32 220.078 224.238 220.078C225.098 220.078 225.859 220.801 225.859 221.699C225.859 222.598 225.098 223.34 224.238 223.34ZM233.281 227.109C233.281 230.781 232.148 233.848 230.273 236.484H227.52C228.867 234.531 230.273 230.625 230.273 227.109C230.273 223.613 228.867 219.707 227.52 217.754H230.273C232.148 220.391 233.281 223.438 233.281 227.109Z" fill="#757575"/>
</svg>
