<svg width="235" height="241" viewBox="0 0 235 241" fill="none" xmlns="http://www.w3.org/2000/svg">
<circle cx="117.5" cy="79.5" r="79" fill="white"/>
<circle cx="157" cy="59.75" r="9.875" fill="#E1E1E1"/>
<path d="M117.5 109.5C131.859 109.5 143.5 98.3071 143.5 84.5C143.5 70.6929 131.859 59.5 117.5 59.5C103.141 59.5 91.5 70.6929 91.5 84.5C91.5 98.3071 103.141 109.5 117.5 109.5Z" fill="#E1E1E1"/>
<path d="M74.5723 45.1725V40.0352H86.6856V45.1725H74.5723Z" fill="#E1E1E1" stroke="#A1A1A1" stroke-width="3"/>
<path opacity="0.15" d="M101 103.5C123.8 104.7 135.167 80.3333 138 68C146 76 145 87 143.5 91.5C129.9 118.3 109.5 110.667 101 103.5Z" fill="black"/>
<path opacity="0.15" d="M154.499 66C157.699 65.2 160.166 58 160.999 54.5C161.833 55.3333 163.7 57.2 164.5 58C165.5 59 163.499 63 160.999 65.5C158.499 68 150.499 67 154.499 66Z" fill="black"/>
<path d="M161.468 44.937H140.44C138.604 37.7777 133.07 30.125 130.432 30.125H104.568C101.93 30.125 96.396 37.7777 94.5602 44.937H73.5322C67.8167 44.937 63.1875 49.3566 63.1875 54.8133V114.063C63.1875 119.518 67.8167 123.938 73.5322 123.938H161.466C167.183 123.938 171.813 119.518 171.813 114.063V54.8133C171.813 49.3566 167.183 44.937 161.468 44.937ZM117.5 110.111C102.644 110.111 90.6026 98.6168 90.6026 84.4372C90.6026 70.2559 102.646 58.7621 117.5 58.7621C132.354 58.7621 144.397 70.2559 144.397 84.4372C144.396 98.6168 132.354 110.111 117.5 110.111ZM156.295 67.1566C152.01 67.1566 148.536 63.8402 148.536 59.7506C148.536 55.6611 152.01 52.3447 156.295 52.3447C160.581 52.3447 164.055 55.6611 164.055 59.7506C164.053 63.8402 160.579 67.1566 156.295 67.1566Z" fill="#E1E1E1" stroke="#A1A1A1" stroke-width="4"/>
<path d="M95.1583 58.1499L95.5045 58.5106L95.1583 58.1499C94.914 58.3843 94.5784 58.5195 94.2243 58.5195H73.5331C73.179 58.5195 72.8434 58.3843 72.5991 58.1499L72.2529 58.5106L72.5991 58.1499C72.3555 57.9161 72.2227 57.6035 72.2227 57.2822C72.2227 56.9609 72.3555 56.6483 72.5991 56.4145C72.8434 56.1801 73.179 56.0449 73.5331 56.0449H94.2243C94.5784 56.0449 94.914 56.1801 95.1583 56.4145L95.5036 56.0547L95.1583 56.4145C95.4019 56.6483 95.5347 56.9609 95.5347 57.2822C95.5347 57.6035 95.4019 57.9161 95.1583 58.1499Z" fill="#E1E1E1" stroke="#A1A1A1"/>
<path d="M33.9922 192.141C33.9922 194.5 35.7109 196.891 37.7578 197.781L37.0703 198.75C35.4453 198.008 34.0391 196.406 33.3984 194.484C32.7422 196.523 31.3438 198.297 29.7578 199.094L29.0234 198.125C31.0078 197.172 32.7422 194.547 32.7578 192.141V190.328H29.4766V189.312H37.3047V190.328H33.9922V192.141ZM40.4766 187.875V201.766H39.2422V187.875H40.4766ZM53.8984 188.625V189.656C53.8984 190.734 53.8984 192 53.5391 193.734H55.5703V194.75H42.8516V193.734H52.3047C52.6797 191.992 52.6797 190.734 52.6797 189.656V189.641H44.4609V188.625H53.8984ZM53.9609 196.672V201.578H44.4141V196.672H53.9609ZM45.6328 197.641V200.578H52.7422V197.641H45.6328ZM72.5859 187.875V201.766H71.4141V187.875H72.5859ZM69.6641 188.25V201.062H68.4922V194.578H65.5547C64.7031 196.195 63.3672 197.625 61.4297 198.766L60.7109 197.875C63.7344 196.086 65.25 193.578 65.4766 190.672H61.3047V189.656H66.6953C66.6875 191.023 66.4688 192.344 66.0078 193.578H68.4922V188.25H69.6641ZM79.4609 191.609C79.4453 194.141 81.1797 196.703 83.2266 197.625L82.4766 198.594C80.8984 197.82 79.5312 196.188 78.8672 194.203C78.2188 196.305 76.8516 198.055 75.2266 198.875L74.4453 197.844C76.5078 196.891 78.2266 194.25 78.2422 191.609V189.078H79.4609V191.609ZM85.9766 187.875V201.797H84.7422V187.875H85.9766ZM99.3984 188.484V189.375C99.3984 190.32 99.3984 191.508 99.0859 193.078H101.07V194.062H88.3516V193.078H97.8516C98.1641 191.531 98.1797 190.391 98.1797 189.484H89.9609V188.484H99.3984ZM99.4453 195.469V198.969H91.1172V200.609H99.8047V201.609H89.8828V198H98.2266V196.453H89.8672V195.469H99.4453ZM108.508 188.125C111.602 188.125 113.414 188.969 113.414 190.516C113.414 192.094 111.602 192.938 108.508 192.953C105.414 192.938 103.586 192.094 103.586 190.516C103.586 188.969 105.414 188.125 108.508 188.125ZM108.508 189.047C106.195 189.047 104.852 189.609 104.867 190.516C104.852 191.484 106.195 192.016 108.508 192.016C110.805 192.016 112.164 191.484 112.164 190.516C112.164 189.609 110.805 189.047 108.508 189.047ZM114.836 193.891V194.891H102.18V193.891H114.836ZM113.211 196.094V199.203H104.961V200.641H113.633V201.609H103.742V198.297H112.008V197.031H103.711V196.094H113.211ZM124.727 190.453C124.727 192.297 126.086 193.984 128.148 194.703L127.523 195.656C125.938 195.094 124.727 193.953 124.133 192.516C123.539 194.094 122.266 195.32 120.633 195.922L119.977 194.969C122.055 194.234 123.508 192.438 123.523 190.453V189.859H120.352V188.859H127.852V189.859H124.727V190.453ZM130.883 187.875V191.547H132.977V192.594H130.883V196.25H129.664V187.875H130.883ZM130.883 196.984V201.766H129.664V197.984H121.789V196.984H130.883ZM138.633 190.062C138.617 192.047 140.023 193.797 142.07 194.484L141.383 195.438C139.852 194.859 138.648 193.734 138.055 192.266C137.453 193.93 136.18 195.227 134.508 195.859L133.836 194.859C135.977 194.109 137.398 192.266 137.414 190.109V188.672H138.633V190.062ZM145.367 187.875V196.109H144.133V191.875H141.039V190.859H144.133V187.875H145.367ZM140.758 196.516C143.648 196.516 145.414 197.469 145.414 199.141C145.414 200.797 143.648 201.734 140.758 201.734C137.867 201.734 136.102 200.797 136.102 199.141C136.102 197.469 137.867 196.516 140.758 196.516ZM140.758 197.484C138.633 197.484 137.305 198.109 137.32 199.141C137.305 200.141 138.633 200.75 140.758 200.75C142.883 200.75 144.195 200.141 144.195 199.141C144.195 198.109 142.883 197.484 140.758 197.484ZM154.617 190.281V191.281H147.648V190.281H150.539V188.297H151.758V190.281H154.617ZM151.133 192.219C152.883 192.219 154.133 193.531 154.148 195.375C154.133 197.234 152.883 198.562 151.133 198.562C149.398 198.562 148.148 197.234 148.148 195.375C148.148 193.531 149.398 192.219 151.133 192.219ZM151.133 193.25C150.039 193.266 149.242 194.156 149.242 195.375C149.242 196.609 150.039 197.5 151.133 197.484C152.242 197.5 153.055 196.609 153.055 195.375C153.055 194.156 152.242 193.266 151.133 193.25ZM159.508 187.875V201.766H158.336V194.75H156.492V201.078H155.336V188.219H156.492V193.734H158.336V187.875H159.508ZM174.227 198.969V199.984H161.508V198.969H167.227V195.969H163.008V188.859H164.242V191.375H171.461V188.859H172.664V195.969H168.43V198.969H174.227ZM164.242 194.969H171.461V192.375H164.242V194.969ZM179.461 191.828C179.461 194.031 180.539 196.422 182.383 197.516L181.68 198.469C180.344 197.656 179.383 196.172 178.898 194.484C178.383 196.328 177.352 197.914 175.961 198.766L175.18 197.844C177.102 196.719 178.273 194.25 178.273 191.875V189.188H179.461V191.828ZM187.242 187.875V201.766H186.055V187.875H187.242ZM184.367 188.172V201.062H183.211V193.906H180.852V192.859H183.211V188.172H184.367ZM201.883 198.953V199.984H189.164V198.953H192.32V195.203C191.133 194.586 190.414 193.586 190.414 192.328C190.414 190.172 192.523 188.766 195.492 188.75C198.461 188.766 200.57 190.172 200.57 192.328C200.57 193.562 199.875 194.555 198.727 195.172V198.953H201.883ZM195.492 189.766C193.211 189.75 191.602 190.781 191.602 192.328C191.602 193.875 193.211 194.922 195.492 194.922C197.758 194.922 199.383 193.875 199.383 192.328C199.383 190.781 197.758 189.75 195.492 189.766ZM193.523 198.953H197.492V195.641C196.891 195.805 196.219 195.891 195.492 195.891C194.781 195.891 194.117 195.812 193.523 195.656V198.953ZM205.242 189.188L205.133 197.312H203.82L203.711 189.188H205.242ZM204.477 200.594C203.93 200.594 203.461 200.141 203.477 199.578C203.461 199.031 203.93 198.578 204.477 198.578C205.023 198.578 205.477 199.031 205.477 199.578C205.477 200.141 205.023 200.594 204.477 200.594Z" fill="#757575"/>
<path d="M16.9336 224.922V226.875H0.683594V224.922H7.59766V223.398H2.65625V217.305H14.9805V219.238H5.13672V221.445H15.0781V223.398H10.0391V224.922H16.9336ZM8.76953 227.773C12.6172 227.773 14.9414 228.945 14.9609 231.055C14.9414 233.125 12.6172 234.316 8.76953 234.316C4.88281 234.316 2.53906 233.125 2.53906 231.055C2.53906 228.945 4.88281 227.773 8.76953 227.773ZM8.76953 229.668C6.30859 229.668 5.05859 230.137 5.07812 231.055C5.05859 231.992 6.30859 232.422 8.76953 232.422C11.1719 232.422 12.4414 231.992 12.4609 231.055C12.4414 230.137 11.1719 229.668 8.76953 229.668ZM21.1523 218.223V227.91C22.7832 227.881 24.2871 227.764 25.957 227.402L26.2891 229.492C24.1016 229.961 22.1875 230.039 19.9023 230.039H18.6523V218.223H21.1523ZM33.3789 216.523V234.297H31.0352V216.523H33.3789ZM29.5703 216.855V233.516H27.207V224.16H23.6523V222.148H27.207V216.855H29.5703ZM51.5234 230.176V232.168H35.2539V230.176H42.0508V226.152H44.5312V230.176H51.5234ZM44.6094 218.809C44.6094 221.348 46.8945 224.023 50.957 224.648L49.9023 226.719C46.7773 226.152 44.4531 224.482 43.2812 222.266C42.1094 224.473 39.8047 226.162 36.6992 226.719L35.6445 224.648C39.668 224.023 41.9336 221.328 41.9531 218.809V217.539H44.6094V218.809ZM59.3555 219.043C59.3359 221.27 60.6055 223.418 63.5352 224.297L62.2852 226.25C60.2637 225.605 58.8672 224.346 58.0664 222.715C57.2656 224.473 55.8203 225.85 53.7305 226.523L52.4805 224.57C55.4492 223.613 56.7578 221.309 56.7578 219.043V217.344H59.3555V219.043ZM67.4219 227.891V234.297H64.9219V229.883H55.1953V227.891H67.4219ZM67.4219 216.523V227.129H64.9219V216.523H67.4219ZM85.2344 216.523V234.297H82.8516V216.523H85.2344ZM81.5234 216.777V233.477H79.1797V225.078H77.7539C77.5195 228.574 76.0352 230.684 73.8477 230.684C71.5039 230.684 69.9805 228.223 69.9805 224.219C69.9805 220.234 71.5039 217.793 73.8477 217.793C75.9863 217.793 77.4512 219.785 77.7344 223.105H79.1797V216.777H81.5234ZM73.8477 220.137C72.8516 220.137 72.2656 221.504 72.2852 224.219C72.2656 226.953 72.8516 228.301 73.8477 228.281C74.8633 228.301 75.4688 226.953 75.4688 224.219C75.4688 221.504 74.8633 220.137 73.8477 220.137ZM107.051 216.523V234.297H104.648V225.41H102.988V233.438H100.645V216.816H102.988V223.398H104.648V216.523H107.051ZM94.9414 218.496V227.773C96.3672 227.744 97.9297 227.617 99.6484 227.285L99.9023 229.434C97.5195 229.844 95.4883 229.961 93.6523 229.961H92.4414V218.496H94.9414ZM127.949 217.246V218.457C127.949 219.6 127.949 221.025 127.617 222.812H129.883V224.766H113.613V222.812H125.098C125.391 221.367 125.449 220.205 125.469 219.219H115.605V217.246H127.949ZM127.871 226.016V230.996H117.949V232.246H128.359V234.16H115.469V229.121H125.41V227.949H115.449V226.016H127.871ZM145.781 216.523V234.336H143.262V216.523H145.781ZM136.133 217.773C138.809 217.773 140.801 220.234 140.801 224.102C140.801 228.008 138.809 230.449 136.133 230.449C133.398 230.449 131.406 228.008 131.426 224.102C131.406 220.234 133.398 217.773 136.133 217.773ZM136.133 220.02C134.746 220.02 133.828 221.465 133.828 224.102C133.828 226.758 134.746 228.184 136.133 228.184C137.48 228.184 138.398 226.758 138.398 224.102C138.398 221.465 137.48 220.02 136.133 220.02ZM169.062 230.176V232.168H152.793V230.176H159.59V226.152H162.07V230.176H169.062ZM162.148 218.809C162.148 221.348 164.434 224.023 168.496 224.648L167.441 226.719C164.316 226.152 161.992 224.482 160.82 222.266C159.648 224.473 157.344 226.162 154.238 226.719L153.184 224.648C157.207 224.023 159.473 221.328 159.492 218.809V217.539H162.148V218.809ZM185.41 216.523V234.297H183.008V225.254H181.387V233.516H179.062V216.992H181.387V223.262H183.008V216.523H185.41ZM177.812 218.711C177.793 223.672 176.309 227.734 171.309 230.645L169.863 228.926C173.486 226.797 175.039 224.189 175.391 220.703H170.762V218.711H177.812ZM187.129 228.77C188.135 228.77 189.365 228.76 190.664 228.73V225.742H187.91V218.125H195.566V220.137H190.352V223.75H195.723V225.742H193.047V228.633C194.131 228.594 195.195 228.516 196.133 228.398L196.27 230.176C193.398 230.723 189.746 230.801 187.461 230.801L187.129 228.77ZM202.949 216.523V234.297H200.566V225.605H199.18V233.477H196.855V216.816H199.18V223.594H200.566V216.523H202.949ZM220.918 230.176V232.227H204.648V230.176H208.281V225.82C206.904 225 206.074 223.74 206.074 222.168C206.074 219.297 208.887 217.383 212.754 217.383C216.602 217.383 219.434 219.297 219.453 222.168C219.443 223.701 218.633 224.951 217.305 225.781V230.176H220.918ZM212.754 219.355C210.215 219.355 208.535 220.371 208.535 222.168C208.535 223.906 210.215 224.98 212.754 224.98C215.273 224.98 216.973 223.906 216.992 222.168C216.973 220.371 215.273 219.355 212.754 219.355ZM210.742 230.176H214.785V226.719C214.15 226.846 213.467 226.914 212.754 226.914C212.041 226.914 211.367 226.855 210.742 226.719V230.176ZM224.238 230.781C223.32 230.781 222.578 230.039 222.598 229.141C222.578 228.242 223.32 227.52 224.238 227.52C225.098 227.52 225.859 228.242 225.859 229.141C225.859 230.039 225.098 230.781 224.238 230.781ZM224.238 223.34C223.32 223.34 222.578 222.598 222.598 221.699C222.578 220.801 223.32 220.078 224.238 220.078C225.098 220.078 225.859 220.801 225.859 221.699C225.859 222.598 225.098 223.34 224.238 223.34ZM233.281 227.109C233.281 230.781 232.148 233.848 230.273 236.484H227.52C228.867 234.531 230.273 230.625 230.273 227.109C230.273 223.613 228.867 219.707 227.52 217.754H230.273C232.148 220.391 233.281 223.438 233.281 227.109Z" fill="#757575"/>
</svg>
