<svg width="235" height="241" viewBox="0 0 235 241" fill="none" xmlns="http://www.w3.org/2000/svg">
<circle cx="117.5" cy="79.5" r="79" fill="white"/>
<path fill-rule="evenodd" clip-rule="evenodd" d="M124.309 22.709C122.441 24.9532 119.624 26.3839 116.474 26.3839C113.391 26.3839 110.635 25.0123 108.768 22.8517C94.6108 26.438 84.123 39.2061 84.123 54.4536C84.123 72.4778 98.7618 87.0916 116.817 87.0916C134.874 87.0916 149.511 72.4778 149.511 54.4533C149.511 39.0045 138.749 26.0952 124.309 22.709Z" fill="#FEFEFE"/>
<path fill-rule="evenodd" clip-rule="evenodd" d="M108.009 25.6124C95.3122 29.4496 86.5649 41.117 86.5649 54.4544C86.5649 71.0943 100.126 84.632 116.796 84.632C133.462 84.632 147.023 71.0943 147.023 54.4544C147.023 40.8578 138.067 29.1263 125.074 25.4548C122.737 27.6366 119.653 28.8491 116.45 28.8457C113.332 28.8456 110.324 27.6936 108.009 25.6124ZM116.796 89.5537C97.4074 89.5537 81.6348 73.8077 81.6348 54.4544C81.6348 38.397 92.5334 24.4214 108.138 20.4691C109.039 20.2394 110 20.5397 110.612 21.2468C112.083 22.948 114.211 23.9243 116.45 23.9243C118.751 23.9243 120.915 22.9087 122.391 21.1371C122.683 20.7857 123.068 20.5227 123.503 20.3775C123.937 20.2323 124.404 20.2106 124.849 20.315C140.808 24.057 151.953 38.0951 151.953 54.4544C151.953 73.8077 136.182 89.5537 116.796 89.5537Z" fill="#A1A1A1"/>
<path fill-rule="evenodd" clip-rule="evenodd" d="M139.955 136.292H93.6854L85.127 71.5254H148.513L139.955 136.292Z" fill="#E1E1E1"/>
<path opacity="0.15" fill-rule="evenodd" clip-rule="evenodd" d="M136.994 71.5254L128.436 136.292H139.939L148.497 71.5254H136.994Z" fill="#010202"/>
<path fill-rule="evenodd" clip-rule="evenodd" d="M95.8147 133.833H137.761L145.67 73.9883H87.9071L95.815 133.833H95.8147ZM139.923 138.755H93.6539C92.4163 138.755 91.3712 137.839 91.2086 136.615L82.6502 71.8506C82.6041 71.5033 82.6331 71.1502 82.7351 70.8149C82.8371 70.4796 83.0099 70.1699 83.2418 69.9065C83.4728 69.643 83.7578 69.4317 84.0774 69.2868C84.3971 69.1419 84.7442 69.0667 85.0954 69.0664H148.482C149.19 69.0664 149.867 69.3734 150.336 69.9065C150.567 70.17 150.74 70.4798 150.841 70.815C150.943 71.1503 150.972 71.5034 150.926 71.8506L142.367 136.615C142.204 137.839 141.161 138.755 139.923 138.755Z" fill="#A1A1A1"/>
<path fill-rule="evenodd" clip-rule="evenodd" d="M91.1846 59.3789C91.1846 59.3789 90.968 46.7011 96.828 45.0605C102.688 43.4197 122.408 60.1631 141.717 59.3789" fill="#FEFEFE"/>
<path fill-rule="evenodd" clip-rule="evenodd" d="M140.411 61.8588C128.639 61.8588 117.014 56.0546 108.436 51.7728C104.198 49.6567 98.9043 47.0252 97.5106 47.4223C94.7747 48.1884 93.5979 54.9817 93.6653 59.3308C93.6851 60.6908 92.5989 61.8096 91.2398 61.831C89.9154 61.8491 88.7584 60.7713 88.7353 59.4127C88.709 57.9217 88.7025 44.7761 96.1781 42.6828C99.4318 41.7738 103.888 43.9985 110.641 47.3698C119.084 51.586 130.663 57.3459 141.632 56.9128C142.962 56.8618 144.142 57.9135 144.196 59.2719C144.25 60.6286 143.192 61.7753 141.831 61.8294C141.358 61.849 140.885 61.8588 140.411 61.8588Z" fill="#A1A1A1"/>
<path fill-rule="evenodd" clip-rule="evenodd" d="M109.408 49.5168C109.408 49.5168 126.522 45.468 131.452 43.4174C136.382 41.3668 143.777 42.1147 141.723 59.3763C141.723 59.3763 122.386 57.3619 109.408 49.5168Z" fill="#FEFEFE"/>
<path fill-rule="evenodd" clip-rule="evenodd" d="M99.3984 44.9435C99.3984 44.9435 116.448 42.6123 116.448 32.3426C116.448 32.3426 130.211 31.6471 133.908 42.7206L109.4 49.5158L99.3984 44.9435Z" fill="#FEFEFE"/>
<path opacity="0.15" fill-rule="evenodd" clip-rule="evenodd" d="M116.459 32.3449C116.459 32.3449 131.926 47.7462 132.2 59.3776H141.725C141.725 59.3776 145.441 42.6672 135.212 42.6147C135.212 42.6147 129.75 31.1374 116.459 32.3449Z" fill="#010202"/>
<path fill-rule="evenodd" clip-rule="evenodd" d="M116.417 50.3303C125.153 54.1331 135.028 55.9261 139.527 56.5971C139.995 49.8627 138.653 47.1854 137.743 46.1618C137.079 45.4168 136.26 45.0691 135.164 45.0691C134.331 45.0691 133.38 45.2824 132.413 45.6841C129.321 46.9722 121.886 48.9506 116.417 50.3303ZM141.739 61.8337C141.652 61.8337 141.568 61.8304 141.481 61.8207C140.669 61.7371 121.442 59.6568 108.146 51.6181C107.727 51.3648 107.394 50.993 107.188 50.55C106.982 50.1071 106.913 49.6131 106.989 49.1309C107.065 48.6488 107.282 48.1999 107.614 47.8414C107.946 47.4829 108.378 47.2311 108.855 47.1181C109.024 47.0787 125.828 43.0923 130.517 41.1417C134.726 39.3928 138.885 40.0359 141.429 42.8939C144.249 46.0634 145.149 51.5492 144.183 59.6633C144.037 60.9132 142.972 61.8337 141.739 61.8337" fill="#A1A1A1"/>
<path fill-rule="evenodd" clip-rule="evenodd" d="M106.762 45.6026L109.613 46.9069L130.473 41.124C127.525 36.3188 121.724 35.151 118.64 34.8772C117.32 40.6552 111.58 43.8803 106.762 45.6028M109.406 51.9796C109.056 51.9796 108.706 51.9042 108.38 51.7549L98.3775 47.1828C97.8922 46.9608 97.4923 46.588 97.2378 46.1204C96.9833 45.6527 96.8879 45.1154 96.9659 44.5891C97.0431 44.0627 97.2895 43.5755 97.6682 43.2004C98.0468 42.8253 98.5373 42.5826 99.066 42.5088C99.2156 42.4874 113.987 40.2154 113.987 32.3441C113.987 31.0382 115.021 29.9588 116.329 29.8866C116.329 29.8866 116.544 29.875 116.934 29.875C119.486 29.875 132.416 30.4575 136.251 41.9462C136.465 42.5844 136.407 43.283 136.09 43.8787C135.933 44.1731 135.718 44.4326 135.457 44.6416C135.196 44.8506 134.896 45.0046 134.573 45.0943L110.066 51.8895C109.85 51.9501 109.628 51.9796 109.406 51.9796Z" fill="#A1A1A1"/>
<path fill-rule="evenodd" clip-rule="evenodd" d="M80.4492 71.6587H153.124V59.373H80.4492V71.6587Z" fill="#E1E1E1"/>
<path opacity="0.15" fill-rule="evenodd" clip-rule="evenodd" d="M141.639 71.6568H153.142V59.373H141.639V71.6568Z" fill="#010202"/>
<path fill-rule="evenodd" clip-rule="evenodd" d="M82.9299 69.1983H150.676V61.8357H82.9299V69.1983ZM153.141 74.12H80.4651C79.1043 74.12 78 73.0192 78 71.6593V59.375C78 58.0167 79.1043 56.9141 80.4651 56.9141H153.141C154.502 56.9141 155.606 58.0164 155.606 59.375V71.6593C155.606 73.0192 154.502 74.12 153.141 74.12Z" fill="#A1A1A1"/>
<path fill-rule="evenodd" clip-rule="evenodd" d="M129.907 99.5398C129.907 106.41 124.328 111.98 117.445 111.98C110.563 111.98 104.982 106.41 104.982 99.5398C104.982 92.6692 110.563 87.0996 117.445 87.0996C124.328 87.0996 129.907 92.6692 129.907 99.5398Z" fill="#E1E1E1"/>
<path opacity="0.15" fill-rule="evenodd" clip-rule="evenodd" d="M122.331 88.0918C122.991 89.6354 123.33 91.2962 123.328 92.974C123.328 99.8446 117.749 105.414 110.867 105.414C109.186 105.416 107.522 105.077 105.977 104.418C107.878 108.861 112.295 111.976 117.44 111.976C124.323 111.976 129.902 106.407 129.902 99.5362C129.902 94.398 126.783 89.9899 122.331 88.0918" fill="#010202"/>
<path fill-rule="evenodd" clip-rule="evenodd" d="M117.422 89.5525C111.91 89.5525 107.424 94.0295 107.424 99.5318C107.424 105.036 111.91 109.513 117.422 109.513C122.934 109.513 127.419 105.036 127.419 99.5318C127.419 94.0295 122.934 89.5525 117.422 89.5525ZM117.422 114.434C109.191 114.434 102.494 107.749 102.494 99.5318C102.494 91.3163 109.191 84.6309 117.422 84.6309C125.654 84.6309 132.348 91.3161 132.348 99.5318C132.348 107.749 125.654 114.434 117.422 114.434Z" fill="#A1A1A1"/>
<path d="M33.9922 192.141C33.9922 194.5 35.7109 196.891 37.7578 197.781L37.0703 198.75C35.4453 198.008 34.0391 196.406 33.3984 194.484C32.7422 196.523 31.3438 198.297 29.7578 199.094L29.0234 198.125C31.0078 197.172 32.7422 194.547 32.7578 192.141V190.328H29.4766V189.312H37.3047V190.328H33.9922V192.141ZM40.4766 187.875V201.766H39.2422V187.875H40.4766ZM53.8984 188.625V189.656C53.8984 190.734 53.8984 192 53.5391 193.734H55.5703V194.75H42.8516V193.734H52.3047C52.6797 191.992 52.6797 190.734 52.6797 189.656V189.641H44.4609V188.625H53.8984ZM53.9609 196.672V201.578H44.4141V196.672H53.9609ZM45.6328 197.641V200.578H52.7422V197.641H45.6328ZM72.5859 187.875V201.766H71.4141V187.875H72.5859ZM69.6641 188.25V201.062H68.4922V194.578H65.5547C64.7031 196.195 63.3672 197.625 61.4297 198.766L60.7109 197.875C63.7344 196.086 65.25 193.578 65.4766 190.672H61.3047V189.656H66.6953C66.6875 191.023 66.4688 192.344 66.0078 193.578H68.4922V188.25H69.6641ZM79.4609 191.609C79.4453 194.141 81.1797 196.703 83.2266 197.625L82.4766 198.594C80.8984 197.82 79.5312 196.188 78.8672 194.203C78.2188 196.305 76.8516 198.055 75.2266 198.875L74.4453 197.844C76.5078 196.891 78.2266 194.25 78.2422 191.609V189.078H79.4609V191.609ZM85.9766 187.875V201.797H84.7422V187.875H85.9766ZM99.3984 188.484V189.375C99.3984 190.32 99.3984 191.508 99.0859 193.078H101.07V194.062H88.3516V193.078H97.8516C98.1641 191.531 98.1797 190.391 98.1797 189.484H89.9609V188.484H99.3984ZM99.4453 195.469V198.969H91.1172V200.609H99.8047V201.609H89.8828V198H98.2266V196.453H89.8672V195.469H99.4453ZM108.508 188.125C111.602 188.125 113.414 188.969 113.414 190.516C113.414 192.094 111.602 192.938 108.508 192.953C105.414 192.938 103.586 192.094 103.586 190.516C103.586 188.969 105.414 188.125 108.508 188.125ZM108.508 189.047C106.195 189.047 104.852 189.609 104.867 190.516C104.852 191.484 106.195 192.016 108.508 192.016C110.805 192.016 112.164 191.484 112.164 190.516C112.164 189.609 110.805 189.047 108.508 189.047ZM114.836 193.891V194.891H102.18V193.891H114.836ZM113.211 196.094V199.203H104.961V200.641H113.633V201.609H103.742V198.297H112.008V197.031H103.711V196.094H113.211ZM124.727 190.453C124.727 192.297 126.086 193.984 128.148 194.703L127.523 195.656C125.938 195.094 124.727 193.953 124.133 192.516C123.539 194.094 122.266 195.32 120.633 195.922L119.977 194.969C122.055 194.234 123.508 192.438 123.523 190.453V189.859H120.352V188.859H127.852V189.859H124.727V190.453ZM130.883 187.875V191.547H132.977V192.594H130.883V196.25H129.664V187.875H130.883ZM130.883 196.984V201.766H129.664V197.984H121.789V196.984H130.883ZM138.633 190.062C138.617 192.047 140.023 193.797 142.07 194.484L141.383 195.438C139.852 194.859 138.648 193.734 138.055 192.266C137.453 193.93 136.18 195.227 134.508 195.859L133.836 194.859C135.977 194.109 137.398 192.266 137.414 190.109V188.672H138.633V190.062ZM145.367 187.875V196.109H144.133V191.875H141.039V190.859H144.133V187.875H145.367ZM140.758 196.516C143.648 196.516 145.414 197.469 145.414 199.141C145.414 200.797 143.648 201.734 140.758 201.734C137.867 201.734 136.102 200.797 136.102 199.141C136.102 197.469 137.867 196.516 140.758 196.516ZM140.758 197.484C138.633 197.484 137.305 198.109 137.32 199.141C137.305 200.141 138.633 200.75 140.758 200.75C142.883 200.75 144.195 200.141 144.195 199.141C144.195 198.109 142.883 197.484 140.758 197.484ZM154.617 190.281V191.281H147.648V190.281H150.539V188.297H151.758V190.281H154.617ZM151.133 192.219C152.883 192.219 154.133 193.531 154.148 195.375C154.133 197.234 152.883 198.562 151.133 198.562C149.398 198.562 148.148 197.234 148.148 195.375C148.148 193.531 149.398 192.219 151.133 192.219ZM151.133 193.25C150.039 193.266 149.242 194.156 149.242 195.375C149.242 196.609 150.039 197.5 151.133 197.484C152.242 197.5 153.055 196.609 153.055 195.375C153.055 194.156 152.242 193.266 151.133 193.25ZM159.508 187.875V201.766H158.336V194.75H156.492V201.078H155.336V188.219H156.492V193.734H158.336V187.875H159.508ZM174.227 198.969V199.984H161.508V198.969H167.227V195.969H163.008V188.859H164.242V191.375H171.461V188.859H172.664V195.969H168.43V198.969H174.227ZM164.242 194.969H171.461V192.375H164.242V194.969ZM179.461 191.828C179.461 194.031 180.539 196.422 182.383 197.516L181.68 198.469C180.344 197.656 179.383 196.172 178.898 194.484C178.383 196.328 177.352 197.914 175.961 198.766L175.18 197.844C177.102 196.719 178.273 194.25 178.273 191.875V189.188H179.461V191.828ZM187.242 187.875V201.766H186.055V187.875H187.242ZM184.367 188.172V201.062H183.211V193.906H180.852V192.859H183.211V188.172H184.367ZM201.883 198.953V199.984H189.164V198.953H192.32V195.203C191.133 194.586 190.414 193.586 190.414 192.328C190.414 190.172 192.523 188.766 195.492 188.75C198.461 188.766 200.57 190.172 200.57 192.328C200.57 193.562 199.875 194.555 198.727 195.172V198.953H201.883ZM195.492 189.766C193.211 189.75 191.602 190.781 191.602 192.328C191.602 193.875 193.211 194.922 195.492 194.922C197.758 194.922 199.383 193.875 199.383 192.328C199.383 190.781 197.758 189.75 195.492 189.766ZM193.523 198.953H197.492V195.641C196.891 195.805 196.219 195.891 195.492 195.891C194.781 195.891 194.117 195.812 193.523 195.656V198.953ZM205.242 189.188L205.133 197.312H203.82L203.711 189.188H205.242ZM204.477 200.594C203.93 200.594 203.461 200.141 203.477 199.578C203.461 199.031 203.93 198.578 204.477 198.578C205.023 198.578 205.477 199.031 205.477 199.578C205.477 200.141 205.023 200.594 204.477 200.594Z" fill="#757575"/>
<path d="M16.9336 224.922V226.875H0.683594V224.922H7.59766V223.398H2.65625V217.305H14.9805V219.238H5.13672V221.445H15.0781V223.398H10.0391V224.922H16.9336ZM8.76953 227.773C12.6172 227.773 14.9414 228.945 14.9609 231.055C14.9414 233.125 12.6172 234.316 8.76953 234.316C4.88281 234.316 2.53906 233.125 2.53906 231.055C2.53906 228.945 4.88281 227.773 8.76953 227.773ZM8.76953 229.668C6.30859 229.668 5.05859 230.137 5.07812 231.055C5.05859 231.992 6.30859 232.422 8.76953 232.422C11.1719 232.422 12.4414 231.992 12.4609 231.055C12.4414 230.137 11.1719 229.668 8.76953 229.668ZM21.1523 218.223V227.91C22.7832 227.881 24.2871 227.764 25.957 227.402L26.2891 229.492C24.1016 229.961 22.1875 230.039 19.9023 230.039H18.6523V218.223H21.1523ZM33.3789 216.523V234.297H31.0352V216.523H33.3789ZM29.5703 216.855V233.516H27.207V224.16H23.6523V222.148H27.207V216.855H29.5703ZM51.5234 230.176V232.168H35.2539V230.176H42.0508V226.152H44.5312V230.176H51.5234ZM44.6094 218.809C44.6094 221.348 46.8945 224.023 50.957 224.648L49.9023 226.719C46.7773 226.152 44.4531 224.482 43.2812 222.266C42.1094 224.473 39.8047 226.162 36.6992 226.719L35.6445 224.648C39.668 224.023 41.9336 221.328 41.9531 218.809V217.539H44.6094V218.809ZM59.3555 219.043C59.3359 221.27 60.6055 223.418 63.5352 224.297L62.2852 226.25C60.2637 225.605 58.8672 224.346 58.0664 222.715C57.2656 224.473 55.8203 225.85 53.7305 226.523L52.4805 224.57C55.4492 223.613 56.7578 221.309 56.7578 219.043V217.344H59.3555V219.043ZM67.4219 227.891V234.297H64.9219V229.883H55.1953V227.891H67.4219ZM67.4219 216.523V227.129H64.9219V216.523H67.4219ZM85.2344 216.523V234.297H82.8516V216.523H85.2344ZM81.5234 216.777V233.477H79.1797V225.078H77.7539C77.5195 228.574 76.0352 230.684 73.8477 230.684C71.5039 230.684 69.9805 228.223 69.9805 224.219C69.9805 220.234 71.5039 217.793 73.8477 217.793C75.9863 217.793 77.4512 219.785 77.7344 223.105H79.1797V216.777H81.5234ZM73.8477 220.137C72.8516 220.137 72.2656 221.504 72.2852 224.219C72.2656 226.953 72.8516 228.301 73.8477 228.281C74.8633 228.301 75.4688 226.953 75.4688 224.219C75.4688 221.504 74.8633 220.137 73.8477 220.137ZM107.051 216.523V234.297H104.648V225.41H102.988V233.438H100.645V216.816H102.988V223.398H104.648V216.523H107.051ZM94.9414 218.496V227.773C96.3672 227.744 97.9297 227.617 99.6484 227.285L99.9023 229.434C97.5195 229.844 95.4883 229.961 93.6523 229.961H92.4414V218.496H94.9414ZM127.949 217.246V218.457C127.949 219.6 127.949 221.025 127.617 222.812H129.883V224.766H113.613V222.812H125.098C125.391 221.367 125.449 220.205 125.469 219.219H115.605V217.246H127.949ZM127.871 226.016V230.996H117.949V232.246H128.359V234.16H115.469V229.121H125.41V227.949H115.449V226.016H127.871ZM145.781 216.523V234.336H143.262V216.523H145.781ZM136.133 217.773C138.809 217.773 140.801 220.234 140.801 224.102C140.801 228.008 138.809 230.449 136.133 230.449C133.398 230.449 131.406 228.008 131.426 224.102C131.406 220.234 133.398 217.773 136.133 217.773ZM136.133 220.02C134.746 220.02 133.828 221.465 133.828 224.102C133.828 226.758 134.746 228.184 136.133 228.184C137.48 228.184 138.398 226.758 138.398 224.102C138.398 221.465 137.48 220.02 136.133 220.02ZM169.062 230.176V232.168H152.793V230.176H159.59V226.152H162.07V230.176H169.062ZM162.148 218.809C162.148 221.348 164.434 224.023 168.496 224.648L167.441 226.719C164.316 226.152 161.992 224.482 160.82 222.266C159.648 224.473 157.344 226.162 154.238 226.719L153.184 224.648C157.207 224.023 159.473 221.328 159.492 218.809V217.539H162.148V218.809ZM185.41 216.523V234.297H183.008V225.254H181.387V233.516H179.062V216.992H181.387V223.262H183.008V216.523H185.41ZM177.812 218.711C177.793 223.672 176.309 227.734 171.309 230.645L169.863 228.926C173.486 226.797 175.039 224.189 175.391 220.703H170.762V218.711H177.812ZM187.129 228.77C188.135 228.77 189.365 228.76 190.664 228.73V225.742H187.91V218.125H195.566V220.137H190.352V223.75H195.723V225.742H193.047V228.633C194.131 228.594 195.195 228.516 196.133 228.398L196.27 230.176C193.398 230.723 189.746 230.801 187.461 230.801L187.129 228.77ZM202.949 216.523V234.297H200.566V225.605H199.18V233.477H196.855V216.816H199.18V223.594H200.566V216.523H202.949ZM220.918 230.176V232.227H204.648V230.176H208.281V225.82C206.904 225 206.074 223.74 206.074 222.168C206.074 219.297 208.887 217.383 212.754 217.383C216.602 217.383 219.434 219.297 219.453 222.168C219.443 223.701 218.633 224.951 217.305 225.781V230.176H220.918ZM212.754 219.355C210.215 219.355 208.535 220.371 208.535 222.168C208.535 223.906 210.215 224.98 212.754 224.98C215.273 224.98 216.973 223.906 216.992 222.168C216.973 220.371 215.273 219.355 212.754 219.355ZM210.742 230.176H214.785V226.719C214.15 226.846 213.467 226.914 212.754 226.914C212.041 226.914 211.367 226.855 210.742 226.719V230.176ZM224.238 230.781C223.32 230.781 222.578 230.039 222.598 229.141C222.578 228.242 223.32 227.52 224.238 227.52C225.098 227.52 225.859 228.242 225.859 229.141C225.859 230.039 225.098 230.781 224.238 230.781ZM224.238 223.34C223.32 223.34 222.578 222.598 222.598 221.699C222.578 220.801 223.32 220.078 224.238 220.078C225.098 220.078 225.859 220.801 225.859 221.699C225.859 222.598 225.098 223.34 224.238 223.34ZM233.281 227.109C233.281 230.781 232.148 233.848 230.273 236.484H227.52C228.867 234.531 230.273 230.625 230.273 227.109C230.273 223.613 228.867 219.707 227.52 217.754H230.273C232.148 220.391 233.281 223.438 233.281 227.109Z" fill="#757575"/>
</svg>
