<svg width="32" height="32" viewBox="0 0 32 32" fill="none" xmlns="http://www.w3.org/2000/svg">
<circle cx="16" cy="16" r="16" fill="#00A3FF"/>
<circle cx="24" cy="12" r="2" fill="#424242"/>
<path d="M9.79192 7.70312H7.27329C7.12332 7.70312 7.00195 7.79883 7.00195 7.91775V9.13657C7.00195 9.25514 7.12332 9.3512 7.27329 9.3512H9.79155C9.94152 9.3512 10.0629 9.2555 10.0629 9.13657V7.91775C10.0629 7.79918 9.94152 7.70312 9.79192 7.70312Z" fill="#424242"/>
<path d="M24.9049 8.99989H20.646C20.2742 7.54991 19.1533 6 18.6191 6H13.3809C12.8467 6 11.7258 7.54991 11.354 8.99989H7.09513C5.93757 8.99989 5 9.895 5 11.0002V23.0001C5 24.1049 5.93757 25 7.09513 25H24.9045C26.0624 25 27 24.1049 27 23.0001V11.0002C27 9.895 26.0624 8.99989 24.9049 8.99989ZM16 22.1996C12.9911 22.1996 10.5524 19.8718 10.5524 16.9999C10.5524 14.1278 12.9915 11.7999 16 11.7999C19.0085 11.7999 21.4476 14.1278 21.4476 16.9999C21.4472 19.8718 19.0085 22.1996 16 22.1996ZM23.8573 13.5001C22.9894 13.5001 22.2858 12.8284 22.2858 12.0001C22.2858 11.1719 22.9894 10.5002 23.8573 10.5002C24.7252 10.5002 25.4288 11.1719 25.4288 12.0001C25.4285 12.8284 24.7248 13.5001 23.8573 13.5001Z" fill="white"/>
<path d="M16.0003 22.1989C19.0089 22.1989 21.4479 19.8707 21.4479 16.9988C21.4479 14.127 19.0089 11.7988 16.0003 11.7988C12.9917 11.7988 10.5527 14.127 10.5527 16.9988C10.5527 19.8707 12.9917 22.1989 16.0003 22.1989Z" fill="#424242"/>
<path d="M18.8283 15.6853C19.289 15.6853 19.6625 15.3288 19.6625 14.889C19.6625 14.4493 19.289 14.0928 18.8283 14.0928C18.3676 14.0928 17.9941 14.4493 17.9941 14.889C17.9941 15.3288 18.3676 15.6853 18.8283 15.6853Z" fill="white"/>
<path d="M11.2858 11.8512H7.09518C6.99794 11.8512 6.90467 11.8141 6.83591 11.7481C6.76715 11.6821 6.72852 11.5926 6.72852 11.4993C6.72852 11.406 6.76715 11.3165 6.83591 11.2505C6.90467 11.1845 6.99794 11.1475 7.09518 11.1475H11.2858C11.3831 11.1475 11.4763 11.1845 11.5451 11.2505C11.6139 11.3165 11.6525 11.406 11.6525 11.4993C11.6525 11.5926 11.6139 11.6821 11.5451 11.7481C11.4763 11.8141 11.3831 11.8512 11.2858 11.8512Z" fill="#424242"/>
</svg>
