<svg width="189" height="255" viewBox="0 0 189 255" fill="none" xmlns="http://www.w3.org/2000/svg">
<path opacity="0.1" d="M86.5 255C132.063 255 169 251.418 169 247C169 242.582 132.063 239 86.5 239C40.9365 239 4 242.582 4 247C4 251.418 40.9365 255 86.5 255Z" fill="black"/>
<path fill-rule="evenodd" clip-rule="evenodd" d="M114.784 80.4871C116.812 83.2195 116.245 87.0815 113.517 89.113C108.069 93.1705 101.852 96.0735 95.2464 97.645C88.6409 99.2165 81.785 99.4235 75.0969 98.2533C71.7483 97.6674 69.5079 94.4734 70.0928 91.1193C70.6778 87.7652 73.8665 85.5211 77.2152 86.107C82.2559 86.9889 87.4232 86.8329 92.4017 85.6485C97.3803 84.4641 102.066 82.2761 106.172 79.218C108.9 77.1865 112.756 77.7546 114.784 80.4871Z" fill="#99DAFF"/>
<path fill-rule="evenodd" clip-rule="evenodd" d="M71.7938 186.314C75.6806 191.927 74.297 199.638 68.7034 203.538C61.3914 208.636 53.7236 213.225 46.4845 217.557C45.3569 218.232 44.2397 218.901 43.1358 219.564C39.1136 221.981 35.2284 224.351 31.4867 226.773C35.4443 231.599 35.2124 238.743 30.7487 243.3C25.974 248.174 18.1654 248.241 13.3077 243.451L3.68783 233.963C1.14607 231.457 -0.190668 227.969 0.0220067 224.399C0.234683 220.83 1.97597 217.527 4.79726 215.342C13.1727 208.855 22.047 203.388 30.4623 198.331C31.6293 197.63 32.7851 196.938 33.9304 196.252C41.2182 191.888 48.0757 187.782 54.6281 183.214C60.2216 179.314 67.907 180.702 71.7938 186.314Z" fill="#99DAFF"/>
<path fill-rule="evenodd" clip-rule="evenodd" d="M100.256 26.5716C80.6632 20.385 59.5049 30.2992 48.9779 48.7985L48.9722 48.8085C38.9619 66.3616 39.6632 89.821 48.7294 108.803C57.2027 126.544 72.3174 140.247 88.9918 155.364C90.3691 156.613 91.757 157.871 93.1528 159.142L93.2455 159.227C105.071 170.219 115.739 180.98 126.442 191.777C132.314 197.699 138.196 203.633 144.287 209.622L144.359 209.693C144.33 209.664 144.372 209.706 144.54 209.867C144.688 210.007 144.884 210.193 145.13 210.423C145.619 210.882 146.26 211.479 147.006 212.172C148.107 213.193 149.413 214.4 150.76 215.642L152.016 214.413C156.89 209.645 164.707 209.73 169.477 214.602C174.247 219.474 174.163 227.289 169.289 232.057L159.657 241.479C154.967 246.067 147.506 246.186 142.671 241.75L140.451 239.711C139.111 238.48 137.31 236.824 135.465 235.124C132.019 231.949 127.971 228.21 126.953 227.206C120.379 220.741 114.301 214.607 108.362 208.614C97.9511 198.108 87.9656 188.032 76.4751 177.349C74.9888 175.995 73.4666 174.621 71.9185 173.224C55.9157 158.777 37.1343 141.822 26.4437 119.439C14.6019 94.6461 12.7508 62.4815 27.5152 36.5875C42.8202 9.69671 75.2801 -7.29233 107.848 3.08042C107.912 3.10084 107.976 3.12178 108.04 3.14324C127.347 9.64194 143.294 23.5198 152.392 41.7409C158.185 53.2932 161.336 65.9882 161.618 78.9075C161.9 91.8309 159.303 104.655 154.017 116.452L153.989 116.513C145.441 135.313 139.591 146.196 123.911 161.183C118.982 165.894 111.165 165.719 106.453 160.792C101.74 155.865 101.915 148.051 106.844 143.34C119.309 131.426 123.587 123.714 131.493 106.33C135.274 97.8812 137.13 88.6989 136.928 79.4457C136.726 70.1816 134.466 61.0784 130.311 52.7951L130.3 52.773C124.134 40.4188 113.334 31.0021 100.256 26.5716Z" fill="#99DAFF"/>
<path d="M67.5 79C73.299 79 78 74.5229 78 69C78 63.4772 73.299 59 67.5 59C61.701 59 57 63.4772 57 69C57 74.5229 61.701 79 67.5 79Z" fill="#99DAFF"/>
<path d="M103.5 69C107.642 69 111 65.6421 111 61.5C111 57.3579 107.642 54 103.5 54C99.3579 54 96 57.3579 96 61.5C96 65.6421 99.3579 69 103.5 69Z" fill="#99DAFF"/>
<path fill-rule="evenodd" clip-rule="evenodd" d="M69.5 49.3086C58.8189 49.3086 50.1602 58.1247 50.1602 69C50.1602 79.8753 58.8189 88.6914 69.5 88.6914C80.1811 88.6914 88.8398 79.8753 88.8398 69C88.8398 58.1247 80.1811 49.3086 69.5 49.3086ZM42 69C42 53.536 54.3122 41 69.5 41C84.6878 41 97 53.536 97 69C97 84.464 84.6878 97 69.5 97C54.3122 97 42 84.464 42 69Z" fill="#999999"/>
<path fill-rule="evenodd" clip-rule="evenodd" d="M57.0203 89.5754C58.9437 90.7284 59.5741 93.232 58.4282 95.1674L42.5371 122.008C41.3913 123.943 38.9031 124.578 36.9797 123.425C35.0563 122.272 34.4259 119.768 35.5718 117.833L51.4629 90.992C52.6087 89.0566 55.0969 88.4224 57.0203 89.5754Z" fill="#999999"/>
<path d="M162.262 39.7319C163.88 36.2773 169.541 36.1128 172.736 36.0716C177.713 35.6481 182.668 37.1131 186.646 40.1842C187.623 41.0464 188.339 42.1725 188.711 43.4319C189.083 44.6913 189.096 46.0323 188.749 47.299C187.253 52.6043 181.025 53.6324 176.618 52.6865C173.824 52.0279 171.177 50.8422 168.813 49.1908C166.53 47.8539 164.547 46.0469 162.99 43.8856C162.511 43.3246 162.191 42.6422 162.063 41.9109C161.935 41.1795 162.004 40.4265 162.262 39.7319Z" fill="#99DAFF"/>
<path d="M154.205 27.7901C153.932 27.1439 153.932 26.4214 154.205 25.7752C155.055 23.2636 156.466 20.9585 158.34 19.0195C160.086 16.9506 162.55 15.5488 165.286 15.0688C166.045 14.9429 166.824 14.9903 167.56 15.2073C168.295 15.4242 168.967 15.8045 169.52 16.317C170.072 16.8294 170.49 17.4596 170.738 18.1559C170.987 18.8522 171.06 19.5949 170.951 20.3232C170.971 20.4674 170.971 20.6136 170.951 20.7578C170.124 25.6567 164.459 28.2246 159.911 28.7777C157.926 29.0938 155.032 29.2913 154.205 27.7901Z" fill="#99DAFF"/>
</svg>
